<svg width="1283" height="2585" viewBox="0 0 1283 2585" fill="none" xmlns="http://www.w3.org/2000/svg">
<g clip-path="url(#clip0)">
<rect width="1283" height="2585" fill="white"/>
<path d="M13.2 24.9999V23.9999H12.0372L12.2113 25.1497L13.2 24.9999ZM135.3 24.9999L136.291 24.8685L136.176 23.9999H135.3V24.9999ZM214.5 622.3L213.509 622.431L213.624 623.3H214.5V622.3ZM216.7 622.3V623.3H217.576L217.691 622.431L216.7 622.3ZM295.9 24.9999V23.9999H295.024L294.909 24.8685L295.9 24.9999ZM407 24.9999L407.989 25.1497L408.163 23.9999H407V24.9999ZM290.4 795V796H291.26L291.389 795.15L290.4 795ZM129.8 795L128.811 795.15L128.94 796H129.8V795ZM13.2 25.9999H135.3V23.9999H13.2V25.9999ZM134.309 25.1314L213.509 622.431L215.491 622.169L136.291 24.8685L134.309 25.1314ZM214.5 623.3H216.7V621.3H214.5V623.3ZM217.691 622.431L296.891 25.1314L294.909 24.8685L215.709 622.169L217.691 622.431ZM295.9 25.9999H407V23.9999H295.9V25.9999ZM406.011 24.8502L289.411 794.85L291.389 795.15L407.989 25.1497L406.011 24.8502ZM290.4 794H129.8V796H290.4V794ZM130.789 794.85L14.1887 24.8502L12.2113 25.1497L128.811 795.15L130.789 794.85ZM483.467 24.9999V23.9999H482.617L482.48 24.8392L483.467 24.9999ZM647.367 24.9999L648.354 24.8392L648.218 23.9999H647.367V24.9999ZM772.767 795V796H773.943L773.754 794.839L772.767 795ZM651.767 795L650.777 795.142L650.901 796H651.767V795ZM629.767 642.1L630.757 641.958L628.767 642.1H629.767ZM629.767 644.3V645.3H630.767V644.3H629.767ZM492.267 644.3V643.3H491.403L491.278 644.156L492.267 644.3ZM470.267 795V796H471.132L471.257 795.144L470.267 795ZM358.067 795L357.08 794.839L356.891 796H358.067V795ZM615.467 539.8V540.8H616.619L616.457 539.66L615.467 539.8ZM561.567 159.2L562.557 159.06L562.436 158.2H561.567V159.2ZM559.367 159.2V158.2H558.496L558.377 159.063L559.367 159.2ZM506.567 539.8L505.577 539.663L505.419 540.8H506.567V539.8ZM483.467 25.9999H647.367V23.9999H483.467V25.9999ZM646.38 25.1607L771.78 795.161L773.754 794.839L648.354 24.8392L646.38 25.1607ZM772.767 794H651.767V796H772.767V794ZM652.757 794.858L630.757 641.958L628.777 642.242L650.777 795.142L652.757 794.858ZM628.767 642.1V644.3H630.767V642.1H628.767ZM629.767 643.3H492.267V645.3H629.767V643.3ZM491.278 644.156L469.278 794.856L471.257 795.144L493.257 644.444L491.278 644.156ZM470.267 794H358.067V796H470.267V794ZM359.054 795.161L484.454 25.1607L482.48 24.8392L357.08 794.839L359.054 795.161ZM616.457 539.66L562.557 159.06L560.577 159.34L614.477 539.94L616.457 539.66ZM561.567 158.2H559.367V160.2H561.567V158.2ZM558.377 159.063L505.577 539.663L507.558 539.937L560.358 159.337L558.377 159.063ZM506.567 540.8H615.467V538.8H506.567V540.8Z" fill="black" fill-opacity="0.3"/>
<path d="M358.164 823V822H357.164V823H358.164ZM479.164 823H480.164V822H479.164V823ZM479.164 1483H478.164V1484H479.164V1483ZM678.264 1483H679.264V1482H678.264V1483ZM678.264 1593V1594H679.264V1593H678.264ZM358.164 1593H357.164V1594H358.164V1593ZM358.164 824H479.164V822H358.164V824ZM478.164 823V1483H480.164V823H478.164ZM479.164 1484H678.264V1482H479.164V1484ZM677.264 1483V1593H679.264V1483H677.264ZM678.264 1592H358.164V1594H678.264V1592ZM359.164 1593V823H357.164V1593H359.164ZM700.952 933H701.952V932H700.952V933ZM574.452 933H573.452V934H574.452V933ZM574.452 823V822H573.452V823H574.452ZM948.452 823H949.452V822H948.452V823ZM948.452 933V934H949.452V933H948.452ZM821.952 933V932H820.952V933H821.952ZM821.952 1593V1594H822.952V1593H821.952ZM700.952 1593H699.952V1594H700.952V1593ZM700.952 932H574.452V934H700.952V932ZM575.452 933V823H573.452V933H575.452ZM574.452 824H948.452V822H574.452V824ZM947.452 823V933H949.452V823H947.452ZM948.452 932H821.952V934H948.452V932ZM820.952 933V1593H822.952V933H820.952ZM821.952 1592H700.952V1594H821.952V1592ZM701.952 1593V933H699.952V1593H701.952Z" fill="black" fill-opacity="0.3"/>
<path d="M701.049 1621V1620H700.049V1621H701.049ZM822.049 1621H823.049V1620H822.049V1621ZM822.049 2391V2392H823.049V2391H822.049ZM701.049 2391H700.049V2392H701.049V2391ZM701.049 1622H822.049V1620H701.049V1622ZM821.049 1621V2391H823.049V1621H821.049ZM822.049 2390H701.049V2392H822.049V2390ZM702.049 2391V1621H700.049V2391H702.049ZM907.17 2351.4L907.901 2350.72L907.901 2350.72L907.17 2351.4ZM907.17 1660.6L907.901 1661.28L907.901 1661.28L907.17 1660.6ZM1179.97 1660.6L1179.24 1661.28L1179.24 1661.28L1179.97 1660.6ZM1179.97 2351.4L1179.24 2350.72L1179.24 2350.72L1179.97 2351.4ZM1043.57 2401C984.363 2401 939.195 2384.19 907.901 2350.72L906.44 2352.08C938.213 2386.07 983.977 2403 1043.57 2403V2401ZM907.901 2350.72C876.592 2317.22 860.87 2269.83 860.87 2208.4H858.87C858.87 2270.17 874.682 2318.11 906.44 2352.08L907.901 2350.72ZM860.87 2208.4V1803.6H858.87V2208.4H860.87ZM860.87 1803.6C860.87 1742.17 876.592 1694.78 907.901 1661.28L906.44 1659.92C874.682 1693.89 858.87 1741.83 858.87 1803.6H860.87ZM907.901 1661.28C939.195 1627.81 984.363 1611 1043.57 1611V1609C983.977 1609 938.213 1625.93 906.44 1659.92L907.901 1661.28ZM1043.57 1611C1102.78 1611 1147.95 1627.81 1179.24 1661.28L1180.7 1659.92C1148.93 1625.93 1103.16 1609 1043.57 1609V1611ZM1179.24 1661.28C1210.55 1694.78 1226.27 1742.17 1226.27 1803.6H1228.27C1228.27 1741.83 1212.46 1693.89 1180.7 1659.92L1179.24 1661.28ZM1226.27 1803.6V2208.4H1228.27V1803.6H1226.27ZM1226.27 2208.4C1226.27 2269.83 1210.55 2317.22 1179.24 2350.72L1180.7 2352.08C1212.46 2318.11 1228.27 2270.17 1228.27 2208.4H1226.27ZM1179.24 2350.72C1147.95 2384.19 1102.78 2401 1043.57 2401V2403C1103.16 2403 1148.93 2386.07 1180.7 2352.08L1179.24 2350.72ZM1043.57 2293C1064.68 2293 1080.68 2286.6 1091.37 2273.66C1102.03 2260.76 1107.27 2241.51 1107.27 2216.1H1105.27C1105.27 2241.29 1100.06 2259.99 1089.82 2272.39C1079.61 2284.75 1064.26 2291 1043.57 2291V2293ZM1107.27 2216.1V1795.9H1105.27V2216.1H1107.27ZM1107.27 1795.9C1107.27 1770.49 1102.03 1751.24 1091.37 1738.34C1080.68 1725.4 1064.68 1719 1043.57 1719V1721C1064.26 1721 1079.61 1727.25 1089.82 1739.61C1100.06 1752.01 1105.27 1770.71 1105.27 1795.9H1107.27ZM1043.57 1719C1022.46 1719 1006.46 1725.4 995.774 1738.34C985.115 1751.24 979.87 1770.49 979.87 1795.9H981.87C981.87 1770.71 987.076 1752.01 997.316 1739.61C1007.53 1727.25 1022.88 1721 1043.57 1721V1719ZM979.87 1795.9V2216.1H981.87V1795.9H979.87ZM979.87 2216.1C979.87 2241.51 985.115 2260.76 995.774 2273.66C1006.46 2286.6 1022.46 2293 1043.57 2293V2291C1022.88 2291 1007.53 2284.75 997.316 2272.39C987.076 2259.99 981.87 2241.29 981.87 2216.1H979.87Z" fill="black" fill-opacity="0.3"/>
</g>
<defs>
<clipPath id="clip0">
<rect width="1283" height="2585" fill="white"/>
</clipPath>
</defs>
</svg>
