<svg width="1283" height="1869" viewBox="0 0 1283 1869" fill="none" xmlns="http://www.w3.org/2000/svg">
<path d="M13.2 24.9999H135.3L214.5 622.3H216.7L295.9 24.9999H407L290.4 795H129.8L13.2 24.9999ZM483.467 24.9999H647.367L772.767 795H651.767L629.767 642.1V644.3H492.267L470.267 795H358.067L483.467 24.9999ZM615.467 539.8L561.567 159.2H559.367L506.567 539.8H615.467ZM787.471 24.9999H908.471V685H1107.57V795H787.471V24.9999Z" fill="#F9826C"/>
<path d="M457.966 927H331.466V817H705.466V927H578.966V1587H457.966V927ZM720.049 817H841.049V1587H720.049V817ZM1062.57 1598C1003.17 1598 957.704 1581.13 926.17 1547.4C894.637 1513.67 878.87 1466 878.87 1404.4V999.6C878.87 938 894.637 890.333 926.17 856.6C957.704 822.867 1003.17 806 1062.57 806C1121.97 806 1167.44 822.867 1198.97 856.6C1230.5 890.333 1246.27 938 1246.27 999.6V1404.4C1246.27 1466 1230.5 1513.67 1198.97 1547.4C1167.44 1581.13 1121.97 1598 1062.57 1598ZM1062.57 1488C1104.37 1488 1125.27 1462.7 1125.27 1412.1V991.9C1125.27 941.3 1104.37 916 1062.57 916C1020.77 916 999.87 941.3 999.87 991.9V1412.1C999.87 1462.7 1020.77 1488 1062.57 1488Z" fill="#F9826C"/>
</svg>
