<svg width="1283" height="2869" viewBox="0 0 1283 2869" fill="none" xmlns="http://www.w3.org/2000/svg">
<g clip-path="url(#clip0)">
<rect width="1283" height="2869" fill="white"/>
<path d="M13.2 24.9999V22.9999H10.8743L11.2225 25.2994L13.2 24.9999ZM135.3 24.9999L137.283 24.7371L137.052 22.9999H135.3V24.9999ZM214.5 622.3L212.517 622.563L212.748 624.3H214.5V622.3ZM216.7 622.3V624.3H218.452L218.683 622.563L216.7 622.3ZM295.9 24.9999V22.9999H294.148L293.917 24.7371L295.9 24.9999ZM407 24.9999L408.977 25.2994L409.326 22.9999H407V24.9999ZM290.4 795V797H292.12L292.377 795.299L290.4 795ZM129.8 795L127.823 795.299L128.08 797H129.8V795ZM13.2 26.9999H135.3V22.9999H13.2V26.9999ZM133.317 25.2628L212.517 622.563L216.483 622.037L137.283 24.7371L133.317 25.2628ZM214.5 624.3H216.7V620.3H214.5V624.3ZM218.683 622.563L297.883 25.2628L293.917 24.7371L214.717 622.037L218.683 622.563ZM295.9 26.9999H407V22.9999H295.9V26.9999ZM405.023 24.7005L288.423 794.701L292.377 795.299L408.977 25.2994L405.023 24.7005ZM290.4 793H129.8V797H290.4V793ZM131.777 794.701L15.1775 24.7005L11.2225 25.2994L127.823 795.299L131.777 794.701ZM483.467 24.9999V22.9999H481.767L481.493 24.6785L483.467 24.9999ZM647.367 24.9999L649.341 24.6785L649.068 22.9999H647.367V24.9999ZM772.767 795V797H775.119L774.741 794.679L772.767 795ZM651.767 795L649.788 795.285L650.034 797H651.767V795ZM629.767 642.1L631.747 641.815L627.767 642.1H629.767ZM629.767 644.3V646.3H631.767V644.3H629.767ZM492.267 644.3V642.3H490.538L490.288 644.011L492.267 644.3ZM470.267 795V797H471.996L472.246 795.289L470.267 795ZM358.067 795L356.093 794.679L355.715 797H358.067V795ZM615.467 539.8V541.8H617.77L617.447 539.52L615.467 539.8ZM561.567 159.2L563.547 158.92L563.304 157.2H561.567V159.2ZM559.367 159.2V157.2H557.625L557.386 158.925L559.367 159.2ZM506.567 539.8L504.586 539.525L504.271 541.8H506.567V539.8ZM483.467 26.9999H647.367V22.9999H483.467V26.9999ZM645.393 25.3214L770.793 795.321L774.741 794.679L649.341 24.6785L645.393 25.3214ZM772.767 793H651.767V797H772.767V793ZM653.747 794.715L631.747 641.815L627.788 642.385L649.788 795.285L653.747 794.715ZM627.767 642.1V644.3H631.767V642.1H627.767ZM629.767 642.3H492.267V646.3H629.767V642.3ZM490.288 644.011L468.288 794.711L472.246 795.289L494.246 644.589L490.288 644.011ZM470.267 793H358.067V797H470.267V793ZM360.041 795.321L485.441 25.3214L481.493 24.6785L356.093 794.679L360.041 795.321ZM617.447 539.52L563.547 158.92L559.587 159.48L613.487 540.08L617.447 539.52ZM561.567 157.2H559.367V161.2H561.567V157.2ZM557.386 158.925L504.586 539.525L508.548 540.075L561.348 159.475L557.386 158.925ZM506.567 541.8H615.467V537.8H506.567V541.8Z" fill="black" fill-opacity="0.3"/>
<path d="M358.164 823V821H356.164V823H358.164ZM479.164 823H481.164V821H479.164V823ZM479.164 1483H477.164V1485H479.164V1483ZM678.264 1483H680.264V1481H678.264V1483ZM678.264 1593V1595H680.264V1593H678.264ZM358.164 1593H356.164V1595H358.164V1593ZM358.164 825H479.164V821H358.164V825ZM477.164 823V1483H481.164V823H477.164ZM479.164 1485H678.264V1481H479.164V1485ZM676.264 1483V1593H680.264V1483H676.264ZM678.264 1591H358.164V1595H678.264V1591ZM360.164 1593V823H356.164V1593H360.164ZM700.952 933H702.952V931H700.952V933ZM574.452 933H572.452V935H574.452V933ZM574.452 823V821H572.452V823H574.452ZM948.452 823H950.452V821H948.452V823ZM948.452 933V935H950.452V933H948.452ZM821.952 933V931H819.952V933H821.952ZM821.952 1593V1595H823.952V1593H821.952ZM700.952 1593H698.952V1595H700.952V1593ZM700.952 931H574.452V935H700.952V931ZM576.452 933V823H572.452V933H576.452ZM574.452 825H948.452V821H574.452V825ZM946.452 823V933H950.452V823H946.452ZM948.452 931H821.952V935H948.452V931ZM819.952 933V1593H823.952V933H819.952ZM821.952 1591H700.952V1595H821.952V1591ZM702.952 1593V933H698.952V1593H702.952Z" fill="black" fill-opacity="0.3"/>
<path d="M701.049 1621V1619H699.049V1621H701.049ZM822.049 1621H824.049V1619H822.049V1621ZM822.049 2391V2393H824.049V2391H822.049ZM701.049 2391H699.049V2393H701.049V2391ZM701.049 1623H822.049V1619H701.049V1623ZM820.049 1621V2391H824.049V1621H820.049ZM822.049 2389H701.049V2393H822.049V2389ZM703.049 2391V1621H699.049V2391H703.049ZM907.17 2351.4L908.631 2350.03L908.631 2350.03L907.17 2351.4ZM907.17 1660.6L908.631 1661.97L908.631 1661.97L907.17 1660.6ZM1179.97 1660.6L1178.51 1661.97L1178.51 1661.97L1179.97 1660.6ZM1179.97 2351.4L1178.51 2350.03L1178.51 2350.03L1179.97 2351.4ZM1043.57 2400C984.556 2400 939.685 2383.25 908.631 2350.03L905.709 2352.77C937.722 2387.01 983.784 2404 1043.57 2404V2400ZM908.631 2350.03C877.547 2316.78 861.87 2269.67 861.87 2208.4H857.87C857.87 2270.33 873.727 2318.55 905.709 2352.77L908.631 2350.03ZM861.87 2208.4V1803.6H857.87V2208.4H861.87ZM861.87 1803.6C861.87 1742.33 877.547 1695.22 908.631 1661.97L905.709 1659.23C873.727 1693.45 857.87 1741.67 857.87 1803.6H861.87ZM908.631 1661.97C939.685 1628.75 984.556 1612 1043.57 1612V1608C983.784 1608 937.722 1624.99 905.709 1659.23L908.631 1661.97ZM1043.57 1612C1102.58 1612 1147.46 1628.75 1178.51 1661.97L1181.43 1659.23C1149.42 1624.99 1103.36 1608 1043.57 1608V1612ZM1178.51 1661.97C1209.59 1695.22 1225.27 1742.33 1225.27 1803.6H1229.27C1229.27 1741.67 1213.41 1693.45 1181.43 1659.23L1178.51 1661.97ZM1225.27 1803.6V2208.4H1229.27V1803.6H1225.27ZM1225.27 2208.4C1225.27 2269.67 1209.59 2316.78 1178.51 2350.03L1181.43 2352.77C1213.41 2318.55 1229.27 2270.33 1229.27 2208.4H1225.27ZM1178.51 2350.03C1147.46 2383.25 1102.58 2400 1043.57 2400V2404C1103.36 2404 1149.42 2387.01 1181.43 2352.77L1178.51 2350.03ZM1043.57 2294C1064.89 2294 1081.21 2287.53 1092.14 2274.3C1103.01 2261.14 1108.27 2241.63 1108.27 2216.1H1104.27C1104.27 2241.17 1099.08 2259.61 1089.05 2271.75C1079.08 2283.82 1064.05 2290 1043.57 2290V2294ZM1108.27 2216.1V1795.9H1104.27V2216.1H1108.27ZM1108.27 1795.9C1108.27 1770.37 1103.01 1750.86 1092.14 1737.7C1081.21 1724.47 1064.89 1718 1043.57 1718V1722C1064.05 1722 1079.08 1728.18 1089.05 1740.25C1099.08 1752.39 1104.27 1770.83 1104.27 1795.9H1108.27ZM1043.57 1718C1022.25 1718 1005.93 1724.47 995.003 1737.7C984.134 1750.86 978.87 1770.37 978.87 1795.9H982.87C982.87 1770.83 988.057 1752.39 998.087 1740.25C1008.06 1728.18 1023.09 1722 1043.57 1722V1718ZM978.87 1795.9V2216.1H982.87V1795.9H978.87ZM978.87 2216.1C978.87 2241.63 984.134 2261.14 995.003 2274.3C1005.93 2287.53 1022.25 2294 1043.57 2294V2290C1023.09 2290 1008.06 2283.82 998.087 2271.75C988.057 2259.61 982.87 2241.17 982.87 2216.1H978.87Z" fill="black" fill-opacity="0.3"/>
</g>
<defs>
<clipPath id="clip0">
<rect width="1283" height="2869" fill="white"/>
</clipPath>
</defs>
</svg>
